<?xml version="1.0" standalone="no"?>
<!DOCTYPE svg PUBLIC "-//W3C//DTD SVG 20010904//EN"
 "http://www.w3.org/TR/2001/REC-SVG-20010904/DTD/svg10.dtd">
<svg version="1.0" xmlns="http://www.w3.org/2000/svg"
 width="225.000000pt" height="225.000000pt" viewBox="0 0 225.000000 225.000000"
 preserveAspectRatio="xMidYMid meet">

<g transform="translate(0.000000,225.000000) scale(0.100000,-0.100000)"
fill="#000000" stroke="none">
<path d="M0 1125 l0 -1125 1125 0 1125 0 0 1125 0 1125 -1125 0 -1125 0 0
-1125z m1352 677 c244 -66 412 -227 464 -450 21 -88 14 -233 -15 -320 -58
-172 -190 -302 -366 -362 -44 -15 -50 -20 -53 -48 l-3 -32 176 0 c209 0 238 8
262 70 11 27 22 40 35 40 17 0 18 -10 18 -140 l0 -140 -291 0 -291 0 5 43 c4
23 9 86 13 139 l6 97 55 32 c71 39 143 111 171 170 72 149 68 434 -7 595 -48
102 -150 197 -251 233 -59 21 -158 30 -228 20 -182 -25 -333 -175 -383 -379
-20 -79 -17 -288 5 -369 36 -131 106 -226 203 -272 57 -27 57 -24 69 -211 l7
-98 -287 0 -286 0 0 140 c0 133 1 140 20 140 13 0 22 -10 28 -32 4 -17 20 -41
36 -52 25 -19 44 -21 212 -24 l184 -3 0 33 c0 31 -4 34 -63 57 -236 90 -377
292 -377 541 0 171 52 294 174 415 105 103 210 155 374 185 81 15 298 4 384
-18z"/>
</g>
</svg>
